<?xml version="1.0" encoding="UTF-8"?><svg id="_Ñëîé_1" xmlns="http://www.w3.org/2000/svg" viewBox="0 0 285.427 495.028"><defs><style>.cls-1{fill:#F1F2F2;}</style></defs><path class="cls-1" d="M150.468,33.23c8.954-8.958,12.561-21.202,10.921-32.846-11.646-1.641-23.886,1.967-32.847,10.923-8.956,8.958-12.567,21.202-10.92,32.844,11.641,1.644,23.887-1.966,32.846-10.921ZM96.354,41.856c3.274-12.235.277-24.645-6.964-33.907-10.907,4.399-19.706,13.648-22.982,25.882-3.279,12.234-.284,24.643,6.962,33.905,10.903-4.396,19.7-13.646,22.984-25.88ZM236.167,95.365c12.236,3.281,24.645.284,33.908-6.961-4.399-10.906-13.649-19.705-25.882-22.984-12.237-3.277-24.644-.282-33.907,6.963,4.398,10.906,13.648,19.703,25.881,22.981ZM45.132,160.405c1.646-11.642-1.963-23.887-10.924-32.844-8.954-8.957-21.198-12.567-32.845-10.925-1.643,11.646,1.968,23.89,10.923,32.846,8.958,8.956,21.2,12.568,32.846,10.923ZM233.875,116.636c-1.647,11.645,1.964,23.887,10.919,32.844,8.956,8.957,21.202,12.568,32.844,10.925,1.643-11.647-1.964-23.889-10.919-32.847-8.963-8.955-21.203-12.567-32.844-10.922ZM201.503,347.179v34.015c36.087-12.794,62.001-47.252,62.001-87.667,0-18.138-5.212-35.071-14.22-49.391,18.569-12.383,29.722-33.226,29.722-55.543v-3.571h-139.494c-12.824-.001-23.256-10.433-23.26-23.248,0-12.822,10.435-23.252,23.254-23.252v-31.001c-19.52,0-36.658,10.364-46.216,25.875,1.144-10.482,5.77-20.192,13.332-27.754,28.985-28.987,79.382-8.764,79.382,32.88h31.001c0-25.327-12.212-47.852-31.053-62.004,16.893-12.688,28.464-32.105,30.669-54.248-9.456-6.297-19.724-11.452-30.614-15.306v7.555c0,25.633-20.863,46.501-46.5,46.501h-.005v.002h-.002c-20.696,0-40.158,8.061-54.795,22.699-2.628,2.624-5.028,5.41-7.226,8.325-12.692-16.881-32.101-28.435-54.224-30.638-6.296,9.456-11.451,19.724-15.305,30.614h7.554c25.609,0,46.457,20.827,46.501,46.423,0,.028-.003.051-.003.076,0,42.69,34.697,77.428,77.374,77.501.039,0,.084.003.125.003h15.502v30.999c0,17.095-13.907,31.001-31,31.001H0c0,17.12,13.882,31,31.002,31h2.668c-1.722,4.853-2.668,10.067-2.668,15.502v15.498c0,8.547-6.954,15.502-15.503,15.502H0v108.501c0,17.122,13.88,31.002,31.002,31.002v-108.503h36.49c18.293,0,35.004-6.868,47.722-18.146,11.693,8.687,25.268,14.448,39.789,16.856v78.793c0,17.121,13.879,31,31,31v-186.005c-17.12,0-31,13.88-31,31v13.547c-7.797-1.991-15.089-5.464-21.521-10.274,3.864-8.82,6.019-18.554,6.019-28.781v-7.452c26.715-6.901,46.502-31.201,46.502-60.04v-30.999h49.551l-7.155,4.766-27.803,18.542c9.395,5.232,17.301,12.847,22.879,22.01,5.737,9.398,9.027,20.403,9.027,32.186,0,22.888-12.488,42.913-31,53.652ZM108.502,314.515c0,22.614-18.395,41.011-41.01,41.011h-8.177c1.722-4.853,2.686-10.062,2.686-15.502v-15.498c0-8.55,6.956-15.502,15.498-15.502h31.002v5.491ZM42.838,181.677c-12.238-3.279-24.646-.284-33.91,6.963,4.4,10.904,13.649,19.702,25.884,22.982,12.235,3.275,24.643.283,33.907-6.963-4.403-10.907-13.646-19.707-25.881-22.983ZM148.618,132.148c-1.64,11.646,1.97,23.889,10.927,32.846,8.959,8.956,21.195,12.567,32.843,10.923,1.644-11.644-1.963-23.888-10.921-32.842-8.957-8.957-21.203-12.569-32.849-10.926ZM257.372,358.47c-6.23,8.307-13.616,15.693-21.922,21.92l6.139,6.136-23.274,23.273c-12.106,12.106-12.107,31.735-.002,43.843l67.115-67.116-28.056-28.056ZM77.5,464.026c0,17.122,13.88,31.002,31.002,31.002v-103.234c-9.442,5.03-19.908,8.372-31.002,9.641v62.592ZM85.385,254.176c12.239-3.281,21.487-12.077,25.883-22.985-9.263-7.244-21.667-10.24-33.904-6.962-12.232,3.28-21.485,12.077-25.884,22.984,9.268,7.248,21.674,10.239,33.905,6.963Z"/></svg>