<?xml version="1.0" encoding="UTF-8"?><svg id="_Ñëîé_1" xmlns="http://www.w3.org/2000/svg" viewBox="0 0 285.427 566.174"><defs><style>.cls-1{fill:#ffffff;}.cls-2{fill:#f1f2f2;}</style></defs><path class="cls-2" d="M150.468,33.23c8.954-8.958,12.561-21.202,10.921-32.846-11.646-1.641-23.886,1.967-32.847,10.923-8.956,8.958-12.567,21.202-10.92,32.844,11.641,1.644,23.887-1.966,32.846-10.921ZM96.354,41.856c3.274-12.235.277-24.645-6.964-33.907-10.907,4.399-19.706,13.648-22.982,25.882-3.279,12.234-.284,24.643,6.962,33.905,10.903-4.396,19.7-13.646,22.984-25.88ZM236.167,95.365c12.236,3.281,24.645.284,33.908-6.961-4.399-10.906-13.649-19.705-25.882-22.984-12.237-3.277-24.644-.282-33.907,6.963,4.398,10.906,13.648,19.703,25.881,22.981ZM45.132,160.405c1.646-11.642-1.963-23.887-10.924-32.844-8.954-8.957-21.198-12.567-32.845-10.925-1.643,11.646,1.968,23.89,10.923,32.846,8.958,8.956,21.2,12.568,32.846,10.923ZM233.875,116.636c-1.647,11.645,1.964,23.887,10.919,32.844,8.956,8.957,21.202,12.568,32.844,10.925,1.643-11.647-1.964-23.889-10.919-32.847-8.963-8.955-21.203-12.567-32.844-10.922ZM201.503,347.179v34.015c36.087-12.794,62.001-47.252,62.001-87.667,0-18.138-5.212-35.071-14.22-49.391,18.569-12.383,29.722-33.226,29.722-55.543v-3.571h-139.494c-12.824-.001-23.256-10.433-23.26-23.248,0-12.822,10.435-23.252,23.254-23.252v-31.001c-19.52,0-36.658,10.364-46.216,25.875,1.144-10.482,5.77-20.192,13.332-27.754,28.985-28.987,79.382-8.764,79.382,32.88h31.001c0-25.327-12.212-47.852-31.053-62.004,16.893-12.688,28.464-32.105,30.669-54.248-9.456-6.297-19.724-11.452-30.614-15.306v7.555c0,25.633-20.863,46.501-46.5,46.501h-.005v.002h-.002c-20.696,0-40.158,8.061-54.795,22.699-2.628,2.624-5.028,5.41-7.226,8.325-12.692-16.881-32.101-28.435-54.224-30.638-6.296,9.456-11.451,19.724-15.305,30.614h7.554c25.609,0,46.457,20.827,46.501,46.423,0,.028-.003.051-.003.076,0,42.69,34.697,77.428,77.374,77.501.039,0,.084.003.125.003h15.502v30.999c0,17.095-13.907,31.001-31,31.001H0c0,17.12,13.882,31,31.002,31h2.668c-1.722,4.853-2.668,10.067-2.668,15.502v15.498c0,8.547-6.954,15.502-15.503,15.502H0v108.501c0,17.122,13.88,31.002,31.002,31.002v-108.503h36.49c18.293,0,35.004-6.868,47.722-18.146,11.693,8.687,25.268,14.448,39.789,16.856v78.793c0,17.121,13.879,31,31,31v-186.005c-17.12,0-31,13.88-31,31v13.547c-7.797-1.991-15.089-5.464-21.521-10.274,3.864-8.82,6.019-18.554,6.019-28.781v-7.452c26.715-6.901,46.502-31.201,46.502-60.04v-30.999h49.551l-7.155,4.766-27.803,18.542c9.395,5.232,17.301,12.847,22.879,22.01,5.737,9.398,9.027,20.403,9.027,32.186,0,22.888-12.488,42.913-31,53.652ZM108.502,314.515c0,22.614-18.395,41.011-41.01,41.011h-8.177c1.722-4.853,2.686-10.062,2.686-15.502v-15.498c0-8.55,6.956-15.502,15.498-15.502h31.002v5.491ZM42.838,181.677c-12.238-3.279-24.646-.284-33.91,6.963,4.4,10.904,13.649,19.702,25.884,22.982,12.235,3.275,24.643.283,33.907-6.963-4.403-10.907-13.646-19.707-25.881-22.983ZM148.618,132.148c-1.64,11.646,1.97,23.889,10.927,32.846,8.959,8.956,21.195,12.567,32.843,10.923,1.644-11.644-1.963-23.888-10.921-32.842-8.957-8.957-21.203-12.569-32.849-10.926ZM257.372,358.47c-6.23,8.307-13.616,15.693-21.922,21.92l6.139,6.136-23.274,23.273c-12.106,12.106-12.107,31.735-.002,43.843l67.115-67.116-28.056-28.056ZM77.5,464.026c0,17.122,13.88,31.002,31.002,31.002v-103.234c-9.442,5.03-19.908,8.372-31.002,9.641v62.592ZM85.385,254.176c12.239-3.281,21.487-12.077,25.883-22.985-9.263-7.244-21.667-10.24-33.904-6.962-12.232,3.28-21.485,12.077-25.884,22.984,9.268,7.248,21.674,10.239,33.905,6.963Z"/><path class="cls-1" d="M1.785,505.824h26.52v1.615h-4.93v26.35h16.915v-26.35h-5.015v-1.615h26.605v1.615h-5.015v56.27h5.015v1.615h-26.605v-1.615h5.015v-27.71h-16.915v27.71h4.93v1.615H1.785v-1.615h5.015v-56.27H1.785v-1.615Z"/><path class="cls-1" d="M78.624,505.824h27.625v1.615h-4.675v36.72c0,7.65-1.729,13.218-5.185,16.702-3.457,3.485-8.642,5.228-15.555,5.228-4.59,0-8.231-.878-10.922-2.635-2.692-1.756-4.038-4.221-4.038-7.395,0-2.437.68-4.349,2.04-5.737s3.215-2.083,5.567-2.083,4.108.595,5.27,1.785c1.161,1.189,1.743,2.621,1.743,4.292s-.312,3.357-.935,5.058h-3.315c-.51.851-.765,1.657-.765,2.423s.382,1.417,1.147,1.955c.765.539,1.771.808,3.018.808,2.266,0,3.725-.893,4.377-2.678.651-1.785.978-5.652.978-11.603v-42.84h-6.375v-1.615Z"/><path class="cls-1" d="M138.89,566.174c-9.464,0-16.533-2.562-21.208-7.692-4.675-5.128-7.013-12.551-7.013-22.27s2.508-17.368,7.522-22.95c5.015-5.58,12.113-8.372,21.292-8.372s16.107,2.649,20.782,7.947c4.675,5.299,7.013,12.821,7.013,22.567s-2.367,17.312-7.098,22.695c-4.731,5.384-11.829,8.074-21.292,8.074ZM149.769,539.06v-6.29c0-10.37-.51-16.915-1.53-19.635-1.134-3.116-2.749-5.043-4.845-5.78-1.189-.453-2.635-.68-4.334-.68s-3.16.227-4.377.68c-1.219.454-2.225,1.247-3.018,2.38-.794,1.135-1.432,2.324-1.913,3.57-.482,1.247-.865,3.004-1.147,5.27-.34,3.287-.51,8.132-.51,14.535v6.12c0,6.914.269,11.829.808,14.747.538,2.919,1.204,5.002,1.998,6.248,1.756,2.776,4.476,4.165,8.16,4.165,4.475,0,7.379-1.884,8.711-5.653,1.331-3.768,1.998-10.327,1.998-19.677Z"/><path class="cls-1" d="M198.642,535.234h-4.505v28.475h5.524v1.615h-27.624v-1.615h5.524v-56.27h-5.524v-1.615h25.67c7.365,0,12.593.383,15.682,1.147,3.088.766,5.256,1.687,6.503,2.763,2.72,2.21,4.08,5.725,4.08,10.54s-1.19,8.26-3.57,10.327c-2.38,2.069-6.007,3.302-10.88,3.698v.255c4.59.624,7.791,1.983,9.605,4.08,1.812,2.097,2.72,5.609,2.72,10.539v4.506c0,2.946.155,4.93.468,5.949.311,1.021.977,1.53,1.997,1.53s1.827-.468,2.423-1.402c.595-.936,1.147-2.903,1.657-5.907l1.445.17c-.625,4.816-1.715,8.047-3.272,9.689-1.56,1.644-4.662,2.465-9.308,2.465s-7.948-1.09-9.902-3.272c-1.955-2.181-2.933-6.275-2.933-12.282v-6.205c0-3.173-.412-5.495-1.232-6.97-.822-1.473-2.338-2.21-4.548-2.21ZM194.137,507.439v26.18h2.72c3.23,0,5.623-.99,7.183-2.975,1.558-1.983,2.338-5.213,2.338-9.69v-2.465c0-4.476-.752-7.438-2.253-8.882-1.502-1.445-3.896-2.168-7.183-2.168h-2.805Z"/><path class="cls-1" d="M281.432,505.824l.851,21.335h-1.615c-2.494-7.535-4.704-12.678-6.63-15.427-1.928-2.748-4.704-4.123-8.33-4.123h-1.021v55.93h7.226v1.785h-31.025v-1.785h7.226v-55.93h-1.105c-3.627,0-6.432,1.432-8.415,4.293-1.984,2.861-4.165,7.947-6.545,15.257h-1.615l.851-21.335h50.149Z"/></svg>